# xmcd
#
# Track frame offsets:
#	150
#	14217
#	23376
#	35126
#	68419
#	77924
#	95528
#	111333
#	130149
#	149220
#	160522
#	179199
#	192788
#	211530
#
# Disc length: 3002 seconds
#
# Revision: 2
# Processed by: cddbd v1.5.2PL0 Copyright (c) Steve Scherf et al.
# Submitted via: SynApp - FreeCDDB Version: 2.5
#
DISCID=c30bb80e
DTITLE=Various Artist - Guitar Gods
DYEAR=2000
DGENRE=Blues
TTITLE0=Eric Clapton - Draggin´ my tail
TTITLE1=Jimmy Page - L.A. Breakdown
TTITLE2=Jeff Beck - I´m a man
TTITLE3=B.B. King - Ain´t nobody home
TTITLE4=John Mayall - I´m your witchdoctor
TTITLE5=Uli Jon Roth - Cast away your chains
TTITLE6=James Stevenson - No black magic?
TTITLE7=Mick Ronson - Belgique Blue
TTITLE8=Rene Berg - Rob the bank
TTITLE9=Carlos Santana - Acapulco Sunrise
TTITLE10=Russ Pay - Whole lotta love
TTITLE11=Peter Green - Oh well
TTITLE12=Peter Frampton - Natural born bugie
TTITLE13=Jimi Hendrix - Purple haze
EXTD=
EXTT0=
EXTT1=
EXTT2=
EXTT3=
EXTT4=
EXTT5=
EXTT6=
EXTT7=
EXTT8=
EXTT9=
EXTT10=
EXTT11=
EXTT12=
EXTT13=
PLAYORDER=
